<?xml version="1.0" encoding="utf-8"?>
<!-- Generator: Adobe Illustrator 24.1.0, SVG Export Plug-In . SVG Version: 6.00 Build 0)  -->
<svg version="1.1" id="Capa_1" xmlns="http://www.w3.org/2000/svg" xmlns:xlink="http://www.w3.org/1999/xlink" x="0px" y="0px"
	 viewBox="0 0 2000 2000" style="enable-background:new 0 0 2000 2000;" xml:space="preserve">
<style type="text/css">
	.st0{fill:#E1B67E;stroke:#000000;stroke-width:4.8301;stroke-linecap:round;stroke-linejoin:round;stroke-miterlimit:10;}
	.st1{fill:#F7BBA0;stroke:#000000;stroke-width:4.8301;stroke-linecap:round;stroke-linejoin:round;stroke-miterlimit:10;}
	.st2{fill:#87A2CE;stroke:#000000;stroke-width:4.8301;stroke-linecap:round;stroke-linejoin:round;stroke-miterlimit:10;}
	.st3{fill:#FFFFFF;stroke:#000000;stroke-width:4.8301;stroke-linecap:round;stroke-linejoin:round;stroke-miterlimit:10;}
	.st4{fill:#4D121E;stroke:#000000;stroke-width:4.8301;stroke-linecap:round;stroke-linejoin:round;stroke-miterlimit:10;}
	.st5{fill:#EB7B79;stroke:#000000;stroke-width:4.8301;stroke-linecap:round;stroke-linejoin:round;stroke-miterlimit:10;}
	.st6{fill:#020203;stroke:#000000;stroke-width:4.8301;stroke-linecap:round;stroke-linejoin:round;stroke-miterlimit:9.9999;}
	.st7{fill:#020203;stroke:#000000;stroke-linecap:round;stroke-linejoin:round;stroke-miterlimit:10;}
	.st8{fill:#020203;stroke:#000000;stroke-width:4.8301;stroke-linecap:round;stroke-linejoin:round;stroke-miterlimit:10;}
	.st9{fill:#A5452E;stroke:#000000;stroke-width:4.8301;stroke-linecap:round;stroke-linejoin:round;stroke-miterlimit:10;}
	.st10{fill:#8CA6CD;stroke:#000000;stroke-width:4.8301;stroke-linecap:round;stroke-linejoin:round;stroke-miterlimit:10;}
	.st11{fill:#2A77BA;stroke:#000000;stroke-width:4.8301;stroke-linecap:round;stroke-linejoin:round;stroke-miterlimit:10;}
	.st12{fill:#E09A3D;stroke:#000000;stroke-width:4.8301;stroke-linecap:round;stroke-linejoin:round;stroke-miterlimit:10;}
	.st13{fill:none;stroke:#000000;stroke-width:4.8301;stroke-linecap:round;stroke-linejoin:round;stroke-miterlimit:10;}
	.st14{fill:#166191;stroke:#000000;stroke-width:4.8301;stroke-linecap:round;stroke-linejoin:round;stroke-miterlimit:10;}
	.st15{fill:#E29B3F;stroke:#000000;stroke-width:4.8301;stroke-linecap:round;stroke-linejoin:round;stroke-miterlimit:10;}
	.st16{fill:#E29B3F;stroke:#000000;stroke-width:4.8303;stroke-linecap:round;stroke-linejoin:round;stroke-miterlimit:10.0004;}
	.st17{fill:#1B5B9B;stroke:#000000;stroke-width:4.8301;stroke-linecap:round;stroke-linejoin:round;stroke-miterlimit:10;}
	.st18{fill:#412818;stroke:#000000;stroke-width:4.8301;stroke-linecap:round;stroke-linejoin:round;stroke-miterlimit:10;}
	.st19{fill:#98581F;stroke:#000000;stroke-width:4.8301;stroke-linecap:round;stroke-linejoin:round;stroke-miterlimit:10;}
</style>
<g>
	<path class="st0" d="M957.3,603.6c293.7-3,259.8-193.3,259.8-193.3l-17.5-13.2l14.1-11.8l-12-9.6l13.3-18.6l-13.4-4l4.1-15.6
		c2.4-92.6-102.4-124.9-150.5-122c-48.2,2.9-126.1-10.1-126.1-10.1s-25.7-6.2-102.9-24.9S645.3,154.9,607,227.2
		c-38.3,72.3-31.6,253.4,67,322.8l13.8-5l-1.8,14.6l14.8-1.6l0.3,19.2l19.7-10.4l-1.9,16.9c0,0,43.6,24,129.2,18.2
		C911.3,600.4,957.3,603.6,957.3,603.6z"/>
	<path class="st1" d="M912.6,429.6c2.9,0.3,5.8,0.9,8.6,1.7c3,0.8,6,1.9,8.9,3.2c1.9,0.9,6.8,5,8.9,4.1c0.5-0.2,0.9-0.6,1.3-1
		c2.1-2.4,3.5-5.2,5.5-7.7c6.6-8,16-15.3,26.9-15c18.6,0.6,19.1,25.3,8.4,35.8c1-1,3.8-1.4,5.1-1.7c4.2-1.3,8.5-2.2,12.8-2.8
		c10.7-1.4,22.9-0.3,31.2,7.4c21.1,19.7-0.7,43.4-17.4,56.1c-9.6,7.2-20,13.7-30.9,18.8l-124.4-5.1c0,0-43.1-1.9-43.1-1.9
		c-0.6,0-2.2-2-2.6-2.5c-2.3-2.2-4.4-4.6-6.5-7c-6.2-7.2-11.7-15.2-15.7-23.8c-8.2-18.2-7.4-49.1,16.9-53.1
		c9.8-1.6,19.9,1.4,28.6,5.7c0,0-14.1-31.7,8.4-35.2c22.5-3.5,30.7,20.6,30.7,20.6s2.1,6.6,5.8,8.4C887,438,887.3,427.4,912.6,429.6
		z"/>
	<path class="st2" d="M856.1,611.8c0,0-39.1-0.2-92.7,80.1c0,0,88.9-35.9,142.6,33.5c0,0,73.1-72.2,189.9-38.2
		c0,0-40.9-89.1-139.5-85l10.4,32.7l-60.3,60.9L882,636.1C882,636.1,865.1,627.7,856.1,611.8z"/>
	<path class="st1" d="M960.9,553c0,0-0.9,14.2-1,15.1c-1.3,11.1-3.8,22.1-8.1,32.5c-4.8,11.7-12.1,22.6-22.9,29.6
		c-12.8,8.4-33.3,11.5-47.6,5.5c-10.2-4.2-19.2-14.7-25.5-23.4c-11.3-15.4-17.8-33.8-20.7-52.6c-0.2-1.5-1.2-15.7-1.6-15.8
		c0,0,18.5,4.2,24.3-3.2c0,0,6.2,61.3,39.3,59s41.3-51.6,41.3-51.6S943.2,555.6,960.9,553z"/>
	<path class="st3" d="M938.5,548.2c0,0-2-7.7,0.6-22l42.7,2.3c0,0,3.8,18.4-20.8,24.5C960.9,553,945.7,556.1,938.5,548.2z"/>
	<path class="st3" d="M857.4,523.4l-43.1-1.9c0,0-9,20.6,19.3,22.5c0,0,22.5,4,24.3-3.2C857.9,540.8,859.8,534.3,857.4,523.4z"/>
	<path class="st4" d="M857.4,523.4l81.7,2.8c0,0-2.8,10-1.3,19c0,0-28.8,3.6-38.8,25c0,0-14.7-23.1-40.1-22.6l-1-6.8
		C857.9,540.8,859.9,533.6,857.4,523.4z"/>
	<path class="st5" d="M897.2,599.7c0,0-30.3,4.1-38.4-52.1c0,0,24.4-0.2,40.1,22.6c0,0,7.9-21.3,38.8-25l0.7,3
		C938.5,548.2,931.2,597.6,897.2,599.7z"/>
	
		<ellipse transform="matrix(4.450042e-02 -0.999 0.999 4.450042e-02 382.1098 1369.4067)" class="st6" cx="906.9" cy="484.9" rx="20.2" ry="45.4"/>
	<path class="st3" d="M857.8,406.8c-0.4-0.5-0.6-1.1-0.8-2.1c-0.1-0.8-0.1-1.7-0.1-2.5c-0.1-2.4-0.2-4.9-0.3-7.3
		c-0.2-7.1-0.3-14.2-0.1-21.3c0.4-17.4,1.8-35.2,6.6-52.1c3.7-12.8,10.4-28.7,24.8-32.3c1.6-0.4,3.3-0.6,4.9-0.7
		c0,0,27.9-6,24.4,56.5c0,0,13.4-63.8,44.2-49.7c12.9,5.9,12.7,26.9,12.5,38.6c-0.3,19.1-3.5,38.2-7.3,56.9
		c-1,5.1-2.2,10.1-3.4,15.2c-1.3,5.3-1,10.7-5.9,13.9c-5.3,3.3-10.5,8-13.4,13.6c-2.1,4.3-4,6.7-8.2,4.7c-3.7-1.8-8.3-5.2-12.2-6.5
		c-4.8-1.5-9.8-2.5-14.8-2.7c-2.9-0.1-5.8,0-8.6,0.4c-2.5,0.4-7,0.7-9,2.3c0,0-11.6,9.1-15.4-1.9c-1.9-5.6-4.4-11.1-8.2-15.6
		c-1.6-1.9-3.5-3.7-5.6-5.1C860.1,408.2,858.7,407.9,857.8,406.8z"/>
	<path class="st7" d="M893.4,430.6c0,0-15.1-45.7,0-50.5s13.5,43.3,12.3,49.2C905.7,429.2,899.1,428.3,893.4,430.6z"/>
	<path class="st7" d="M915.7,429.2c0,0-3.7-51.7,12-48.8s4.4,38.6,0.1,52.6C927.8,432.9,920,429.5,915.7,429.2z"/>
	<path class="st8" d="M834.2,409.4c0,0-14.4-145.3,80.4-142.2s75.2,87,75.2,87s-8.1,42.7-14.4,61.1c0,0-6.5-1.6-14.9,2.3
		c0,0,10.8-36.8,13.6-77.8c0,0,5.3-43.4-18.7-46.6c0,0-22.2-6.9-37.7,47.5c0,0,2-55.4-24.8-52.1c-26.8,3.4-32.8,36.4-35.4,61.7
		c-2.6,25.3,0.4,56.5,0.4,56.5S845.5,400.1,834.2,409.4z"/>
	<path class="st8" d="M843.5,318.8c0,0-31.3,27.3-52.6,30.1c-21.3,2.9-122.4-1.9-115.3,76.7s53.3,86.9,72.8,69.8
		c8.3-7.4,3.7-18.7-1.3-26.6c-5.8-9-13.5-16.9-21.5-24c-4.8-4.3-8.1-8.4-10.6-14.3c-2.3-5.4-3.6-11.2-3.3-17.1
		c0.5-12,8-21.8,17.5-28.7c33.7-24.3,82.7-6,107.7-39.4C836.8,345.4,839.4,332.7,843.5,318.8z"/>
	<path class="st8" d="M988.9,360.3c0,0,27.8,29.6,48.8,34.4c21,4.7,122.1,9,108,86.6s-60.9,81.8-78.7,63c-7.7-8.1-2.1-19,3.7-26.3
		c6.6-8.5,15-15.6,23.6-21.9c5.1-3.8,8.9-7.7,11.8-13.3c2.7-5.2,4.5-10.9,4.8-16.7c0.5-12-6-22.5-14.9-30.1
		c-31.4-27.3-91.1-14.9-113-50.4C983,385.5,985.6,374.3,988.9,360.3z"/>
	<path class="st9" d="M846.4,185.6l53.6-47.9l190.2,18.1c0,0,16.8,23.4,7.4,62.5c0,0-18.7-5.1-49-3.9s-82.9-3.7-120.5-10.5
		C890.5,197.2,858,186.7,846.4,185.6z"/>
	<path class="st0" d="M1011.5,69.8c0,0-33.8-10.6-63.8,23.7c-31.5,36-47.7,44.2-47.7,44.2l190.2,18.1
		C1090.2,155.8,1065.2,90.8,1011.5,69.8z"/>
	<path class="st10" d="M1085,684.2c0,0,85.5,87.7,126.5,128.5s152.8,51.7,152.8,51.7s-70,29.1-65.3,114.9c0,0-111.2,3.1-181.9-102.2
		c0,0-83.7-16.1-101.1-90.1c-17.3-73.5-6.5-106.8-5.1-108.7C1010.9,678.3,1063.7,675.6,1085,684.2z"/>
	<path class="st11" d="M814.2,682.7c0,0,9,139.8,71,232s94.8,173.7,79.6,210.4c-15.2,36.6-140.1,224.7-138.4,280.7l-0.5,105.9
		c0,0,16,49,90.3,47.3s52.6-40,52.6-40s7.9-16.2-1-35.6c0,0,10.5-26.7,3.1-51.6c0,0,63.1-74.3,77.8-128.8c0,0,36.9-9.8,42,8.7
		c0,0,8.9,114.4,30.3,157.3c0,0-21.2,20.2-9.4,59.3l-25.3,93c0,0,27,51.2,119.3,42.6c0,0,13.6-1.5,25.5-38.7s43.7-87,43.7-87
		s25.3-34.1,17.9-117s-27.1-152.9-33.3-183.7c-6.3-30.8,15.9-129.4-14.7-135c0,0,8.7-11.8,8.2-23.2c-0.4-8.7-8-17.1-17.3-20.4
		c0,0,26-21.3,5.5-48.1c-20.4-26.8-38.7-36-46.4-61.4c0,0-54.2-29.5-77.7-72.1c0,0-130.6-7.9-106.2-198.8c0,0-60.7,7.5-104.9,47
		C906,725.3,872.6,676.4,814.2,682.7z"/>
	<path class="st10" d="M790,685.4c0,0-33.6,116.7-198.9,117.8c0,0-35.4,14.1-20.3,55s54.1,40.6,54.1,40.6s142.9-2.5,218.4-69.1
		c0,0-30.3-100.9-29-147.1C814.2,682.7,796,682.7,790,685.4z"/>
	<path class="st10" d="M580.6,809.5c0,0-36.9-27.1-58.5-4.1c-21.6,23-20,87.8,42,112.1c0,0,57.8,15.3,55.5-18.3
		c0,0-43-4.5-52.3-52.3C567.3,846.9,565,821.1,580.6,809.5z"/>
	<path class="st8" d="M522.1,805.4l-28.8-6.4c0,0-18.5,22.1-12.1,56.5c6.4,34.5,45.8,36.5,45.8,36.5S492,847.6,522.1,805.4z"/>
	<path class="st12" d="M493.3,799.1c0,0-7.6-134.8-55.9-114.9c0,0-27.4,7.3-12.1,63S411.2,816,411.2,816S282,910.7,288.4,947.9
		c0,0,3,14.5,14.8,17.6c0,0-12.8,8.5-10.4,29.5s18.5,15.5,18.5,15.5s-11.1,15.6-2.4,29.3c8.7,13.7,37.7-10.2,37.7-10.2
		s64.3-59.9,97.1-73.7s77.7-43.4,71.5-64.9c0,0-33.1-11.1-35.4-41.7S493.3,799.1,493.3,799.1z"/>
	<path class="st10" d="M1364.3,864.4c0,0,48.6-15.2,42.7,12.5c0,0,34.4-11.6,44.4,11.3c0,0,5.6,7.5,1.1,31.4c0,0-1.5-14.9-21.2-19.6
		s-52.8,4.9-64.2,32.7c-11.4,27.9-9.8,58.9,4.5,69.7c14.4,10.8,36.5-1.8,36.5-1.8s-7.9,44.6-41.3,32.1c0,0-15.8-6.6-19.3-23.7
		c0,0-13.4,17-33.1,0.2c-17.4-14.8-15.6-29.9-15.6-29.9S1291.4,902.3,1364.3,864.4z"/>
	<path class="st8" d="M1408.2,1000.7c0,0-23.8,14.6-36.5,1.8c-12.7-12.9-16.3-34.8-7.5-65.2c8.7-30.4,50.1-46.9,71.7-35.8
		c21.5,11.1,16.9,27.3,16.9,27.3s-11,12.2-7.5,27.9C1448.7,972.5,1408.2,1000.7,1408.2,1000.7z"/>
	<path class="st12" d="M1446.2,960.8c0,0-5.4-17.5,6.5-31.9c11.9-14.4,43.7-11,58.5-20c14.8-8.9,101.2-97.2,118-49
		s-10.1,100.1-62.4,107.4c0,0,2.4,86.6,29.5,124.8s45.3,105.7,21,112.8c0,0,8.8,18.5,0.4,28.3c-8.3,9.8-23.2,1.2-23.2,1.2
		s9.6,31.5-12.2,44.7c-21.8,13.2-60.5-5.8-77.9-26.1s-98.7-86.9-108.6-226.3c0,0,11.9-14.4,12.5-25.9
		C1408.2,1000.7,1442.4,976.4,1446.2,960.8z"/>
	<path class="st13" d="M1617.2,1204.9c0,0-73.8-48.8-94.4-138.7"/>
	<path class="st13" d="M1594.4,1234.4c0,0-58.3-68.4-78.4-79.8"/>
	<path class="st13" d="M1501.5,992.3c0,0-10.3-42-55.4-31.6"/>
	<path class="st13" d="M1347.7,1009.1c0,0-6.4-8.6-8.3-35"/>
	<path class="st13" d="M1407,876.9c0,0-25.4,11.2-36.9,29.6"/>
	<path class="st13" d="M1117.1,877.1c0,0-36.4-39.8-54.8-83.2"/>
	<path class="st13" d="M1051.1,816.6c0,0,23.1,20.8,36.2,23.7"/>
	<path class="st14" d="M897.9,881.5c0,0,34.5-18.8,17-52.4c-17.4-33.6-55.9-90.6-57.1-139.9c0,0-17.1-9-43.6-6.6c0,0-7,71,29,147.1
		C843.3,829.8,871.9,894.2,897.9,881.5z"/>
	<path class="st14" d="M1016.8,864.8c0,0-31.5,10.2-43.8-44.3c-12.3-54.5-13.5-127.7-13.5-127.7s34.9-13.7,51.4-14.4
		c0,0-16.5,61.4,14.6,136.8C1025.5,815.1,1041.8,860,1016.8,864.8z"/>
	
		<ellipse transform="matrix(0.8558 -0.5173 0.5173 0.8558 -312.8539 578.6378)" class="st15" cx="881.5" cy="850.5" rx="18.9" ry="21.7"/>
	
		<ellipse transform="matrix(0.9452 -0.3266 0.3266 0.9452 -218.0123 372.6827)" class="st16" cx="1000.8" cy="835.6" rx="18.9" ry="21.7"/>
	<path class="st10" d="M910.8,820.5c0,0,49-3.7,57.1-26.3c0,0-7.8-53.2-8.5-101.5c0,0-35.1,13.7-53.4,32.7c0,0-27.1-33.1-48.1-36
		C857.9,689.3,854.4,729.3,910.8,820.5z"/>
	<path class="st13" d="M303.1,965.5c0,0,52.6-54.9,77.4-68.6"/>
	<path class="st13" d="M311.3,1010.5c0,0,56.5-66.3,76.1-78.5"/>
	<path class="st13" d="M1078.8,252.5c0,0,42.9,17.6,55.1,55.9"/>
	<path class="st13" d="M954.2,118.9c0,0,18.5-24.6,39.3-27.1"/>
	<path class="st13" d="M981.5,1303c0,0,97.2-13.9,145.3,10.7"/>
	<path class="st13" d="M981.2,1329.2c3.5-1.5,43.1-24.8,67.7-26.2"/>
	<path class="st17" d="M826,1511.7c0,0-25.1-0.8-24.1,21.5c1,22.4,30.9,29.1,30.9,29.1s-25.5,46.3,45,67.6s117-13.4,117-13.4
		s14.3-9.8,11.9-25.5s-15.5-20.5-15.5-20.5s12.9-10.7,8-26.8c-4.9-16-28.1-17.1-28.1-17.1s4.5,31.3-54.8,32.3
		S838.2,1536.6,826,1511.7z"/>
	<path class="st13" d="M943.2,1596.1c0,0,39.6-12.6,48-25.5"/>
	<path class="st13" d="M895.7,1597.3c0,0-43.3-17.2-62.9-35"/>
	<path class="st17" d="M1094.6,1591.2c0,0-40.7,6.4-31.5,46.6c0,0-11.4,28.6,28.8,64c40.2,35.4,114,35,124.8,28.2
		c10.8-6.9,16.6-23.3,12.8-33.3c0,0,16.7-13.9,15.9-27c-0.8-13-19-30.8-19-30.8s-10.1,24.7-20.6,24.9c0,0-77.3,15.3-119.3-42.6
		L1094.6,1591.2z"/>
	<path class="st13" d="M1104.5,1685.5c0,0-31.6-20.1-41.4-47.6"/>
	<path class="st13" d="M1191.9,1702.9c0,0,26.4,2.6,37.6-6.2"/>
	<path class="st8" d="M863.1,1623.9l-1.7,24.8c0,0-2.9,26.7,51.3,28.3c0,0,36.1,0.8,40.4-19.1l2.8-25.3
		C956,1632.5,912.7,1646.7,863.1,1623.9z"/>
	<path class="st18" d="M841.5,1677.7c0,0-18.3-33.9,20.4-39.8l-0.5,10.7c0,0,1.9,21.6,26.6,24.9c0,0,52,12.5,65.1-15.7l1.2-14.6
		c0,0,18.7,4.5,13.3,30.5c-5.4,26-44.7,31.7-71.9,29C869.3,1700.1,852.4,1694,841.5,1677.7z"/>
	<path class="st19" d="M837.2,1660.6c0,0-51.2,36.3-125.8,27.4c-74.6-8.8-223.2-61.2-240,21.5s212.5,99.7,328,77.3
		s220.6-61.8,169.1-123c0,0,4.9,45-72.6,38.9C895.8,1702.7,837.7,1700.7,837.2,1660.6z"/>
	<path class="st18" d="M961.9,1759.6c0,0-29.5,27.2-88.3,9.3c0,0,100-25.8,107.5-66.4C981.1,1702.6,988.7,1740.5,961.9,1759.6z"/>
	<path class="st8" d="M1080.2,1691.5l-7.4,27.4c0,0-5.4,25.8,36.7,39.5c42.1,13.7,57.3-12.4,57.1-25.7
		C1166.5,1732.6,1123,1732.9,1080.2,1691.5z"/>
	<path class="st18" d="M1050.3,1752.9c0,0-5.9-38.4,22.4-34c0,0-4.2,30.6,46.7,42.2c0,0,37.3,6.7,44.9-18.3c0,0,22.8,20.2,0.8,46.4
		c-22.1,26.1-85.8-1.6-85.8-1.6S1054.2,1775.1,1050.3,1752.9z"/>
	<path class="st19" d="M1167.9,1784.1c0,0,14.7,19,48,25.9c0,0,93.5-11.4,96.2,21.2c0,0,179.1-6.1,174.8,59.8
		c-4.4,65.9-181.7,77.8-243.6,53s-56.6-10.2-187.1-100.2c0,0-75.5-42.4-48.8-96c0,0,7.8-16,42.3-10c0,0-5.4,37.9,35.5,51.9
		C1085.2,1789.7,1149.5,1817.2,1167.9,1784.1z"/>
	<path class="st18" d="M1014.9,1845.4c0,0,38.3,35.6,80.3,25l-50.5-33.3c0,0-35-26.4-41.7-54.4
		C1003,1782.7,982.4,1818.5,1014.9,1845.4z"/>
	<path class="st13" d="M1210.4,1843.9c0,0,49.1-17.9,101.7-12.7"/>
	<path class="st13" d="M1164,1819.8c0,0,22.5-10.6,51.9-9.8"/>
	<path class="st13" d="M638.6,1675.7c0,0,17.2,3.6,58.2,34.5"/>
	<path class="st13" d="M728.9,1689.5c1.3,1.5,16.9,4,29.6,18.4"/>
	<path class="st8" d="M883.2,638.5l23.3,57.2l60.3-60.9l-13.5-34.6C953.4,600.2,937.4,646.2,883.2,638.5z"/>
</g>
</svg>
